<svg xmlns="http://www.w3.org/2000/svg" width="1440" height="800" viewBox="0 0 1440 800"><defs><pattern id="grain" width="16" height="16" patternUnits="userSpaceOnUse"><circle cx="2" cy="3" r=".65" fill="#fff" opacity=".16"/></pattern></defs><rect width="1440" height="800" fill="#d9bc93"/><circle cx="1080" cy="210" r="112" fill="#f6ddac"/><path d="M0 450Q300 330 640 460T1440 420V800H0Z" fill="#a99880"/><path d="M0 595L1440 490V800H0Z" fill="#655f50"/><path d="M0 645L1440 540" stroke="#d9bd89" stroke-width="12"/><g fill="#988269"><path d="M0 500h70v-37h65v37h70v-37h65v37h70v-37h65v37h70v-37h65v37h70v-37h65v37h70v-37h65v37h70v-37h65v37h70v-37h65v37h70v-37h65v37h70v-37h65v37h70v-37h65v37h70v-37h65v115H0Z"/></g><path d="M510 510V330h430v180Z" fill="#9d5e45"/><path d="M535 315h380v-80H535Z" fill="#b67b54"/><path d="M720 176Q600 256 470 252l40 40h430l40-40q-130 4-260-76Z" fill="#455449"/><path d="M480 317Q560 343 720 292q170 51 250 25l-38 45H515Z" fill="#3d4c42"/><path d="M666 510v-85a54 54 0 0 1 108 0v85" fill="#414f45"/><g fill="#ecc994"><rect x="563" y="377" width="28" height="75"/><rect x="853" y="377" width="28" height="75"/><rect x="581" y="250" width="22" height="28"/><rect x="836" y="250" width="22" height="28"/></g><path d="M0 735Q480 653 640 746T1440 675V800H0Z" fill="#444b3d"/><path d="M170 615V250M170 410l-92-110M170 351l96-128" fill="none" stroke="#635440" stroke-width="17"/><g fill="#b37b48"><ellipse cx="87" cy="264" rx="99" ry="77"/><ellipse cx="242" cy="209" rx="103" ry="83"/><ellipse cx="171" cy="344" rx="102" ry="71"/></g><rect width="1440" height="800" fill="url(#grain)"/></svg>